<svg xmlns="http://www.w3.org/2000/svg" viewBox="0 0 920 280" role="img" aria-label="Belt triad comparison">
  <rect width="920" height="280" fill="#0a0f18" rx="12"/>
  <text x="24" y="32" fill="#e8c878" font-size="18" font-weight="700">bench-triad — host gcc vs belt_1_0 vs belt_2_0</text>
  <text x="24" y="54" fill="#8fb4d9" font-size="12">field-nexus-bench · updated 2026-06-27T14:31:29.393801+00:00</text>
  <text x="24" y="88" fill="#a8a49c" font-size="11">COMPILE (ms)</text>
  <rect x="80" y="100" width="80" height="120" fill="#c8a030" rx="4"/>
  <text x="84" y="238" fill="#ccc" font-size="10" transform="rotate(-20 120 238)">host g++</text>
  <text x="100" y="90" fill="#fff" font-size="11">2,078</text>
  <rect x="200" y="118" width="80" height="102" fill="#e8c878" rx="4"/>
  <text x="204" y="238" fill="#ccc" font-size="10" transform="rotate(-20 240 238)">g16 belt_1_0</text>
  <text x="220" y="108" fill="#fff" font-size="11">1,774</text>
  <rect x="320" y="132" width="80" height="88" fill="#38bdf8" rx="4"/>
  <text x="324" y="238" fill="#ccc" font-size="10" transform="rotate(-20 360 238)">g16 belt_2_0</text>
  <text x="340" y="122" fill="#fff" font-size="11">1,527</text>
  <text x="24" y="168" fill="#a8a49c" font-size="11">RUN wall (ms)</text>
  <rect x="80" y="68" width="80" height="80" fill="#c8a030" opacity="0.75" rx="4"/>
  <text x="108" y="62" fill="#fff" font-size="11">4</text>
  <rect x="200" y="88" width="80" height="60" fill="#e8c878" opacity="0.75" rx="4"/>
  <text x="228" y="82" fill="#fff" font-size="11">3</text>
  <rect x="320" y="68" width="80" height="80" fill="#38bdf8" opacity="0.75" rx="4"/>
  <text x="348" y="62" fill="#fff" font-size="11">4</text>
  <text x="520" y="240" fill="#7ec8ff" font-size="12">belt_2 compile speedup vs belt_1: 1.16x</text>
</svg>
